<svg xmlns="http://www.w3.org/2000/svg" width="201.894" height="201.894" viewBox="0 0 201.894 201.894">
  <g id="Símbolo_14_1" data-name="Símbolo 14 – 1" transform="translate(-182.384 -838.053)">
    <circle id="Elipse_44" data-name="Elipse 44" cx="100.947" cy="100.947" r="100.947" transform="translate(182.384 838.053)" fill="#058a8b" opacity="0.1"/>
    <g id="Grupo_1907" data-name="Grupo 1907" transform="translate(-554.964 480.148)">
      <path id="Trazado_3501" data-name="Trazado 3501" d="M783.153,409.13c2.605,8.054,9.391,19.948,26.974,25.118a82.682,82.682,0,0,1-9.731-30.006h-13.43C784.182,404.242,782.3,406.48,783.153,409.13Z" transform="translate(0.064 0.12)" fill="none"/>
      <path id="Trazado_3502" data-name="Trazado 3502" d="M891.414,409.126c.868-2.642-1.018-4.881-3.811-4.881H874.178c-1.562,11.5-4.992,21.815-9.743,30.015C882.035,429.1,888.812,417.185,891.414,409.126Z" transform="translate(0.763 0.12)" fill="none"/>
      <path id="Trazado_3503" data-name="Trazado 3503" d="M829.777,452.1a25.1,25.1,0,0,1-3.7-1.563,11.528,11.528,0,0,0-.5,3.409,11.718,11.718,0,0,0,4.206,9.007v11.831a5.039,5.039,0,0,1-5.043,5.043h-6.778v7.07h19.385V453.349A23.705,23.705,0,0,1,829.777,452.1Z" transform="translate(0.364 0.517)" fill="#f5d519"/>
      <path id="Trazado_3504" data-name="Trazado 3504" d="M783.217,409.181c-.857-2.65,1.029-4.888,3.813-4.888h13.43c-.269-1.985-.489-4-.646-6.051h-24.38l.117,3.14c.014.345,1.7,33.545,39.755,40.325a54.032,54.032,0,0,1-5.116-7.407C792.608,429.129,785.822,417.235,783.217,409.181Z" transform="translate(0 0.069)" fill="#f5d519"/>
      <rect id="Rectángulo_420" data-name="Rectángulo 420" width="33.455" height="34.856" transform="translate(804.25 498.162)" fill="#747678"/>
      <path id="Trazado_3505" data-name="Trazado 3505" d="M837.461,486.585h-27l-6.455,10.752h33.455Z" transform="translate(0.245 0.826)" fill="#58595a"/>
      <rect id="Rectángulo_421" data-name="Rectángulo 421" width="33.443" height="34.856" transform="translate(837.706 498.162)" fill="#58595a"/>
      <path id="Trazado_3506" data-name="Trazado 3506" d="M837.177,497.337H870.62l-6.454-10.752H837.177Z" transform="translate(0.529 0.826)" fill="#444648"/>
      <path id="Trazado_3507" data-name="Trazado 3507" d="M837.5,410.958l.005.01V390.245H799.3q0,4.1.306,8.066c.156,2.05.376,4.067.646,6.051a82.682,82.682,0,0,0,9.731,30.006,54.032,54.032,0,0,0,5.116,7.407,36.122,36.122,0,0,0,11.133,9.277,25.1,25.1,0,0,0,3.7,1.563,23.705,23.705,0,0,0,7.564,1.251v-24.5l-.005,0-7.212,3.792,1.378-8.029-5.835-5.686,8.062-1.172Z" transform="translate(0.205 0)" fill="#ffde1e"/>
      <path id="Trazado_3508" data-name="Trazado 3508" d="M833.664,418.089l-8.063,1.172,5.835,5.687-1.378,8.029,7.212-3.792,0,0v-18.4l0-.01Z" transform="translate(0.43 0.176)" fill="#ffde1e"/>
      <path id="Trazado_3509" data-name="Trazado 3509" d="M849.783,479.824a5.032,5.032,0,0,1-5.043-5.043V462.951a11.758,11.758,0,0,0,4.2-9.007,11.526,11.526,0,0,0-.5-3.409,24.589,24.589,0,0,1-3.691,1.563,23.716,23.716,0,0,1-7.564,1.251v33.545H856.55v-7.07Z" transform="translate(0.529 0.517)" fill="#ebb403"/>
      <path id="Trazado_3510" data-name="Trazado 3510" d="M874.867,398.245q-.241,3.073-.646,6.051h13.425c2.794,0,4.68,2.239,3.811,4.881-2.6,8.059-9.38,19.97-26.979,25.134a53.434,53.434,0,0,1-5.093,7.393c38.043-6.787,39.728-39.98,39.739-40.322l.121-3.138Z" transform="translate(0.719 0.069)" fill="#f2ba09"/>
      <path id="Trazado_3511" data-name="Trazado 3511" d="M837.176,390.245v20.723l3.6,7.3,8.063,1.172L843,425.123l1.378,8.029-7.206-3.789v24.5a23.716,23.716,0,0,0,7.564-1.251,24.589,24.589,0,0,0,3.691-1.563,36.012,36.012,0,0,0,11.144-9.279,53.434,53.434,0,0,0,5.093-7.393c4.75-8.2,8.181-18.516,9.743-30.015q.41-2.979.646-6.051.3-3.964.3-8.069Z" transform="translate(0.529 0)" fill="#fec81e"/>
      <path id="Trazado_3512" data-name="Trazado 3512" d="M844.382,432.977,843,424.948l5.835-5.687-8.063-1.172-3.6-7.3v18.4Z" transform="translate(0.529 0.176)" fill="#fec81e"/>
    </g>
  </g>
</svg>
