<?xml version="1.0" encoding="UTF-8" standalone="no"?>
<svg
   xmlns:dc="http://purl.org/dc/elements/1.1/"
   xmlns:cc="http://creativecommons.org/ns#"
   xmlns:rdf="http://www.w3.org/1999/02/22-rdf-syntax-ns#"
   xmlns:svg="http://www.w3.org/2000/svg"
   xmlns="http://www.w3.org/2000/svg"
   viewBox="0 0 999.31335 920"
   height="920"
   width="999.31335"
   xml:space="preserve"
   id="svg2"
   version="1.1"><metadata
     id="metadata8"><rdf:RDF><cc:Work
         rdf:about=""><dc:format>image/svg+xml</dc:format><dc:type
           rdf:resource="http://purl.org/dc/dcmitype/StillImage" /></cc:Work></rdf:RDF></metadata><defs
     id="defs6"><clipPath
       id="clipPath18"
       clipPathUnits="userSpaceOnUse"><path
         id="path16"
         d="M 0,690 H 749.485 V 0 H 0 Z" /></clipPath></defs><g
     transform="matrix(1.3333333,0,0,-1.3333333,0,920)"
     id="g10"><g
       id="g12"><g
         clip-path="url(#clipPath18)"
         id="g14"><g
           transform="translate(374.7426,689)"
           id="g20"><path
             id="path22"
             style="fill:#00964b;fill-opacity:1;fill-rule:nonzero;stroke:none"
             d="m 0,0 c 189.986,0 344,-154.014 344,-344 0,-189.986 -154.014,-344 -344,-344 -189.986,0 -344,154.014 -344,344 0,189.986 154.014,344 344,344" /></g><g
           transform="translate(374.7426,689)"
           id="g24"><path
             id="path26"
             style="fill:none;stroke:#1d1d1b;stroke-width:2;stroke-linecap:butt;stroke-linejoin:miter;stroke-miterlimit:10;stroke-dasharray:none;stroke-opacity:1"
             d="m 0,0 c 189.986,0 344,-154.014 344,-344 0,-189.986 -154.014,-344 -344,-344 -189.986,0 -344,154.014 -344,344 0,189.986 154.014,344 344,344 z" /></g><g
           transform="translate(533.6679,239.3741)"
           id="g28"><path
             id="path30"
             style="fill:#000000;fill-opacity:1;fill-rule:nonzero;stroke:none"
             d="m 0,0 c 0,-87.772 -71.153,-158.925 -158.925,-158.925 -87.772,0 -158.926,71.153 -158.926,158.925 0,87.772 71.154,158.925 158.926,158.925 C -71.153,158.925 0,87.772 0,0" /></g><g
           transform="translate(533.6679,239.3741)"
           id="g32"><path
             id="path34"
             style="fill:none;stroke:#000000;stroke-width:7;stroke-linecap:butt;stroke-linejoin:miter;stroke-miterlimit:4;stroke-dasharray:none;stroke-opacity:1"
             d="m 0,0 c 0,-87.772 -71.153,-158.925 -158.925,-158.925 -87.772,0 -158.926,71.153 -158.926,158.925 0,87.772 71.154,158.925 158.926,158.925 C -71.153,158.925 0,87.772 0,0 Z" /></g><g
           transform="translate(516.2297,239.3741)"
           id="g36"><path
             id="path38"
             style="fill:#00964b;fill-opacity:1;fill-rule:nonzero;stroke:none"
             d="m 0,0 c 0,-78.282 -63.46,-141.742 -141.742,-141.742 -78.282,0 -141.742,63.46 -141.742,141.742 0,78.282 63.46,141.742 141.742,141.742 C -63.46,141.742 0,78.282 0,0" /></g><g
           transform="translate(516.2297,239.3741)"
           id="g40"><path
             id="path42"
             style="fill:none;stroke:#000000;stroke-width:7;stroke-linecap:butt;stroke-linejoin:miter;stroke-miterlimit:4;stroke-dasharray:none;stroke-opacity:1"
             d="m 0,0 c 0,-78.282 -63.46,-141.742 -141.742,-141.742 -78.282,0 -141.742,63.46 -141.742,141.742 0,78.282 63.46,141.742 141.742,141.742 C -63.46,141.742 0,78.282 0,0 Z" /></g><g
           transform="translate(246.6398,473.2432)"
           id="g44"><path
             id="path46"
             style="fill:#000000;fill-opacity:1;fill-rule:nonzero;stroke:none"
             d="m 0,0 c -19.814,59.445 -35.941,108.165 -35.837,108.268 0.103,0.103 37.038,6.455 82.079,14.114 l 81.891,13.926 81.861,-13.925 c 45.023,-7.658 81.945,-14.009 82.049,-14.114 0.164,-0.163 -71.497,-215.759 -71.865,-216.213 -0.076,-0.092 -2.091,1.122 -4.479,2.699 -18.743,12.375 -40.827,20.684 -64.649,24.321 -11.134,1.7 -33.082,1.861 -43.426,0.319 -24.222,-3.61 -44.829,-10.981 -63.656,-22.77 -3.722,-2.33 -7.031,-4.342 -7.355,-4.471 C 36.29,-107.975 19.814,-59.445 0,0" /></g><g
           transform="translate(246.6398,473.2432)"
           id="g48"><path
             id="path50"
             style="fill:none;stroke:#000000;stroke-width:7;stroke-linecap:butt;stroke-linejoin:miter;stroke-miterlimit:4;stroke-dasharray:none;stroke-opacity:1"
             d="m 0,0 c -19.814,59.445 -35.941,108.165 -35.837,108.268 0.103,0.103 37.038,6.455 82.079,14.114 l 81.891,13.926 81.861,-13.925 c 45.023,-7.658 81.945,-14.009 82.049,-14.114 0.164,-0.163 -71.497,-215.759 -71.865,-216.213 -0.076,-0.092 -2.091,1.122 -4.479,2.699 -18.743,12.375 -40.827,20.684 -64.649,24.321 -11.134,1.7 -33.082,1.861 -43.426,0.319 -24.222,-3.61 -44.829,-10.981 -63.656,-22.77 -3.722,-2.33 -7.031,-4.342 -7.355,-4.471 C 36.29,-107.975 19.814,-59.445 0,0 Z" /></g><g
           transform="translate(283.2411,366.8011)"
           id="g52"><path
             id="path54"
             style="fill:#000000;fill-opacity:1;fill-rule:nonzero;stroke:none"
             d="m 0,0 c -2.406,6.077 -19.25,56.168 -41.508,123.438 -33.336,100.746 -30.132,90.783 -29.274,91.053 2.057,0.649 67.639,11.635 67.899,11.375 0.392,-0.394 57.433,-202.765 57.21,-202.971 -0.092,-0.085 -3.214,-1 -6.938,-2.033 C 32.525,16.738 18.711,10.329 1.033,-0.644 0.689,-0.857 0.225,-0.567 0,0" /></g><g
           transform="translate(283.2411,366.8011)"
           id="g56"><path
             id="path58"
             style="fill:none;stroke:#000000;stroke-width:7;stroke-linecap:butt;stroke-linejoin:miter;stroke-miterlimit:4;stroke-dasharray:none;stroke-opacity:1"
             d="m 0,0 c -2.406,6.077 -19.25,56.168 -41.508,123.438 -33.336,100.746 -30.132,90.783 -29.274,91.053 2.057,0.649 67.639,11.635 67.899,11.375 0.392,-0.394 57.433,-202.765 57.21,-202.971 -0.092,-0.085 -3.214,-1 -6.938,-2.033 C 32.525,16.738 18.711,10.329 1.033,-0.644 0.689,-0.857 0.225,-0.567 0,0 Z" /></g><g
           transform="translate(466.6679,367.0245)"
           id="g60"><path
             id="path62"
             style="fill:#000000;fill-opacity:1;fill-rule:nonzero;stroke:none"
             d="M 0,0 C 2.406,6.077 19.25,56.168 41.508,123.438 74.844,224.184 71.64,214.221 70.782,214.491 68.725,215.14 3.143,226.126 2.883,225.866 2.491,225.472 -54.55,23.101 -54.327,22.895 c 0.092,-0.085 3.214,-1 6.938,-2.033 C -32.525,16.738 -18.711,10.329 -1.033,-0.644 -0.689,-0.857 -0.225,-0.567 0,0" /></g><g
           transform="translate(466.6679,367.0245)"
           id="g64"><path
             id="path66"
             style="fill:none;stroke:#000000;stroke-width:7;stroke-linecap:butt;stroke-linejoin:miter;stroke-miterlimit:4;stroke-dasharray:none;stroke-opacity:1"
             d="M 0,0 C 2.406,6.077 19.25,56.168 41.508,123.438 74.844,224.184 71.64,214.221 70.782,214.491 68.725,215.14 3.143,226.126 2.883,225.866 2.491,225.472 -54.55,23.101 -54.327,22.895 c 0.092,-0.085 3.214,-1 6.938,-2.033 C -32.525,16.738 -18.711,10.329 -1.033,-0.644 -0.689,-0.857 -0.225,-0.567 0,0 Z" /></g><g
           transform="translate(338.66,495.8281)"
           id="g68"><path
             id="path70"
             style="fill:#000000;fill-opacity:1;fill-rule:nonzero;stroke:none"
             d="m 0,0 c 0,85.008 -0.105,106.607 -0.52,106.606 -0.975,-0.003 -56.612,-9.632 -56.81,-9.832 -0.109,-0.109 6.458,-23.813 14.593,-52.675 8.134,-28.862 20.933,-74.578 28.442,-101.592 7.508,-27.013 13.797,-49.115 13.973,-49.115 C -0.145,-106.608 0,-58.634 0,0" /></g><g
           transform="translate(338.66,495.8281)"
           id="g72"><path
             id="path74"
             style="fill:none;stroke:#000000;stroke-width:7;stroke-linecap:butt;stroke-linejoin:miter;stroke-miterlimit:4;stroke-dasharray:none;stroke-opacity:1"
             d="m 0,0 c 0,85.008 -0.105,106.607 -0.52,106.606 -0.975,-0.003 -56.612,-9.632 -56.81,-9.832 -0.109,-0.109 6.458,-23.813 14.593,-52.675 8.134,-28.862 20.933,-74.578 28.442,-101.592 7.508,-27.013 13.797,-49.115 13.973,-49.115 C -0.145,-106.608 0,-58.634 0,0 Z" /></g><g
           transform="translate(411.4675,496.5562)"
           id="g76"><path
             id="path78"
             style="fill:#000000;fill-opacity:1;fill-rule:nonzero;stroke:none"
             d="M 0,0 C 0,85.008 0.105,106.607 0.52,106.606 1.495,106.603 57.132,96.974 57.33,96.774 57.439,96.665 50.872,72.961 42.737,44.099 34.603,15.237 21.804,-30.479 14.295,-57.493 6.787,-84.506 0.498,-106.608 0.322,-106.608 0.145,-106.608 0,-58.634 0,0" /></g><g
           transform="translate(411.4675,496.5562)"
           id="g80"><path
             id="path82"
             style="fill:none;stroke:#000000;stroke-width:7;stroke-linecap:butt;stroke-linejoin:miter;stroke-miterlimit:4;stroke-dasharray:none;stroke-opacity:1"
             d="M 0,0 C 0,85.008 0.105,106.607 0.52,106.606 1.495,106.603 57.132,96.974 57.33,96.774 57.439,96.665 50.872,72.961 42.737,44.099 34.603,15.237 21.804,-30.479 14.295,-57.493 6.787,-84.506 0.498,-106.608 0.322,-106.608 0.145,-106.608 0,-58.634 0,0 Z" /></g><g
           transform="translate(477.8166,237.3741)"
           id="g84"><path
             id="path86"
             style="fill:#00964b;fill-opacity:1;fill-rule:nonzero;stroke:none"
             d="m 0,0 c 0,-56.898 -46.125,-103.023 -103.023,-103.023 -56.897,0 -103.022,46.125 -103.022,103.023 0,56.898 46.125,103.023 103.022,103.023 C -46.125,103.023 0,56.898 0,0" /></g><g
           transform="translate(477.8166,237.3741)"
           id="g88"><path
             id="path90"
             style="fill:none;stroke:#000000;stroke-width:2;stroke-linecap:butt;stroke-linejoin:miter;stroke-miterlimit:4;stroke-dasharray:none;stroke-opacity:1"
             d="m 0,0 c 0,-56.898 -46.125,-103.023 -103.023,-103.023 -56.897,0 -103.022,46.125 -103.022,103.023 0,56.898 46.125,103.023 103.022,103.023 C -46.125,103.023 0,56.898 0,0 Z" /></g><g
           transform="translate(374.794,322.877)"
           id="g92"><path
             id="path94"
             style="fill:#000000;fill-opacity:1;fill-rule:nonzero;stroke:none"
             d="m 0,0 24.863,-50.377 55.594,-8.079 -40.228,-39.213 9.496,-55.37 -49.725,26.142 -49.725,-26.142 9.496,55.37 -40.228,39.213 55.594,8.079 z" /></g><g
           transform="translate(374.794,322.877)"
           id="g96"><path
             id="path98"
             style="fill:none;stroke:#000000;stroke-width:7;stroke-linecap:butt;stroke-linejoin:miter;stroke-miterlimit:4;stroke-dasharray:none;stroke-opacity:1"
             d="m 0,0 24.863,-50.377 55.594,-8.079 -40.228,-39.213 9.496,-55.37 -49.725,26.142 -49.725,-26.142 9.496,55.37 -40.228,39.213 55.594,8.079 z" /></g><g
           transform="translate(374.794,448.3561)"
           id="g100"><path
             id="path102"
             style="fill:#00964b;fill-opacity:1;fill-rule:nonzero;stroke:none"
             d="M 0,0 5.704,-11.558 18.46,-13.412 9.23,-22.409 11.409,-35.112 0,-29.115 l -11.409,-5.997 2.179,12.703 -9.23,8.997 12.756,1.854 z" /></g><g
           transform="translate(374.794,448.3561)"
           id="g104"><path
             id="path106"
             style="fill:none;stroke:#000000;stroke-width:7;stroke-linecap:butt;stroke-linejoin:miter;stroke-miterlimit:4;stroke-dasharray:none;stroke-opacity:1"
             d="M 0,0 5.704,-11.558 18.46,-13.412 9.23,-22.409 11.409,-35.112 0,-29.115 l -11.409,-5.997 2.179,12.703 -9.23,8.997 12.756,1.854 z" /></g><g
           transform="translate(374.794,596.8731)"
           id="g108"><path
             id="path110"
             style="fill:#00964b;fill-opacity:1;fill-rule:nonzero;stroke:none"
             d="M 0,0 5.704,-11.558 18.46,-13.412 9.23,-22.409 11.409,-35.112 0,-29.115 l -11.409,-5.997 2.179,12.703 -9.23,8.997 12.756,1.854 z" /></g><g
           transform="translate(374.794,596.8731)"
           id="g112"><path
             id="path114"
             style="fill:none;stroke:#000000;stroke-width:7;stroke-linecap:butt;stroke-linejoin:miter;stroke-miterlimit:4;stroke-dasharray:none;stroke-opacity:1"
             d="M 0,0 5.704,-11.558 18.46,-13.412 9.23,-22.409 11.409,-35.112 0,-29.115 l -11.409,-5.997 2.179,12.703 -9.23,8.997 12.756,1.854 z" /></g><g
           transform="translate(374.794,549.6971)"
           id="g116"><path
             id="path118"
             style="fill:#00964b;fill-opacity:1;fill-rule:nonzero;stroke:none"
             d="M 0,0 5.704,-11.558 18.46,-13.412 9.23,-22.409 11.409,-35.112 0,-29.115 l -11.409,-5.997 2.179,12.703 -9.23,8.997 12.756,1.854 z" /></g><g
           transform="translate(374.794,549.6971)"
           id="g120"><path
             id="path122"
             style="fill:none;stroke:#000000;stroke-width:7;stroke-linecap:butt;stroke-linejoin:miter;stroke-miterlimit:4;stroke-dasharray:none;stroke-opacity:1"
             d="M 0,0 5.704,-11.558 18.46,-13.412 9.23,-22.409 11.409,-35.112 0,-29.115 l -11.409,-5.997 2.179,12.703 -9.23,8.997 12.756,1.854 z" /></g><g
           transform="translate(374.4879,501.1249)"
           id="g124"><path
             id="path126"
             style="fill:#00964b;fill-opacity:1;fill-rule:nonzero;stroke:none"
             d="M 0,0 5.704,-11.558 18.46,-13.412 9.23,-22.409 11.409,-35.112 0,-29.115 l -11.409,-5.997 2.179,12.703 -9.23,8.997 12.756,1.854 z" /></g><g
           transform="translate(374.4879,501.1249)"
           id="g128"><path
             id="path130"
             style="fill:none;stroke:#000000;stroke-width:7;stroke-linecap:butt;stroke-linejoin:miter;stroke-miterlimit:4;stroke-dasharray:none;stroke-opacity:1"
             d="M 0,0 5.704,-11.558 18.46,-13.412 9.23,-22.409 11.409,-35.112 0,-29.115 l -11.409,-5.997 2.179,12.703 -9.23,8.997 12.756,1.854 z" /></g></g></g></g></svg>